<svg width="112" height="68" viewBox="0 0 112 68" fill="none" xmlns="http://www.w3.org/2000/svg">
<path d="M90.5589 2H104.782L110.115 18.0774H85.2253L90.5589 2Z" stroke="#FAFAFA" stroke-width="2.19895" stroke-linecap="round" stroke-linejoin="round"/>
<path d="M97.8533 18.3629V66.1269" stroke="#FAFAFA" stroke-width="2.19895" stroke-linecap="round" stroke-linejoin="round"/>
<path d="M93.3237 66.8691H102.383" stroke="#FAFAFA" stroke-width="2.19895" stroke-linecap="round" stroke-linejoin="round"/>
<path d="M105.723 18.0774V23.5583" stroke="#FAFAFA" stroke-width="2.19895" stroke-linecap="round" stroke-linejoin="round"/>
<path d="M4.67664 36.1188L5.04313 22.759C5.04313 22.0504 5.32512 21.3708 5.82708 20.8697C6.32903 20.3686 7.00983 20.0871 7.7197 20.0871H71.5909C72.3008 20.0871 72.9816 20.3686 73.4835 20.8697C73.9855 21.3708 74.2675 22.0504 74.2675 22.759V36.1188" stroke="#FAFAFA" stroke-width="2.19895" stroke-linecap="round" stroke-linejoin="round"/>
<path d="M68.9143 57.4944V65.5103" stroke="#FAFAFA" stroke-width="2.19895" stroke-linecap="round" stroke-linejoin="round"/>
<path d="M10.0298 57.4944V65.5103" stroke="#FAFAFA" stroke-width="2.19895" stroke-linecap="round" stroke-linejoin="round"/>
<path d="M66.2377 44.1347V38.7907C66.2377 38.0821 66.5197 37.4025 67.0216 36.9014C67.5236 36.4003 68.2044 36.1188 68.9143 36.1188H74.2674C74.9773 36.1188 75.6581 36.4003 76.16 36.9014C76.662 37.4025 76.944 38.0821 76.944 38.7907V54.8225C76.944 55.5311 76.662 56.2107 76.16 56.7118C75.6581 57.2129 74.9773 57.4944 74.2674 57.4944H4.67657C3.9667 57.4944 3.2859 57.2129 2.78395 56.7118C2.28199 56.2107 2 55.5311 2 54.8225V38.7907C2 38.0821 2.28199 37.4025 2.78395 36.9014C3.2859 36.4003 3.9667 36.1188 4.67657 36.1188H10.0297C10.7396 36.1188 11.4204 36.4003 11.9223 36.9014C12.4243 37.4025 12.7063 38.0821 12.7063 38.7907V44.1347C12.7063 44.8433 12.9883 45.5229 13.4902 46.024C13.9922 46.5251 14.673 46.8066 15.3829 46.8066H63.5611C64.271 46.8066 64.9518 46.5251 65.4537 46.024C65.9557 45.5229 66.2377 44.8433 66.2377 44.1347Z" stroke="#FAFAFA" stroke-width="2.19895" stroke-linecap="round" stroke-linejoin="round"/>
<path d="M39.472 20.0871V46.8066" stroke="#FAFAFA" stroke-width="2.19895" stroke-linecap="round" stroke-linejoin="round"/>
</svg>
